<svg xmlns="http://www.w3.org/2000/svg" viewBox="0 0 525.4 532.3"><defs><style>.cls-1{fill:#1d1d1b;}</style></defs><g id="Слой_2" data-name="Слой 2"><g id="Слой_1-2" data-name="Слой 1"><path class="cls-1" d="M251.76,219.89a36.11,36.11,0,0,1-1.67,10.42,30.11,30.11,0,0,1-15.32,18.25q-6.08,3.19-14.87,3.19H120.07a13.44,13.44,0,0,1-5.26-1,12.63,12.63,0,0,1-4.19-2.78,13,13,0,0,1-2.79-4.2,13.62,13.62,0,0,1-1-5.26V120a13.37,13.37,0,0,1,1-5.16,13.63,13.63,0,0,1,2.79-4.25,12.46,12.46,0,0,1,4.19-2.83,13.62,13.62,0,0,1,5.26-1h88a35.31,35.31,0,0,1,10.42,1.72,31.85,31.85,0,0,1,10.36,5.51,30.18,30.18,0,0,1,8,9.86q3.19,6.08,3.19,14.87v5a54.24,54.24,0,0,1-2.32,15,49.83,49.83,0,0,1-7.49,15.22,45.79,45.79,0,0,1,8.34,6.58,42.09,42.09,0,0,1,6.83,8.9A46.76,46.76,0,0,1,250,200.77a53.81,53.81,0,0,1,1.72,14.07Zm-26.29-5a25,25,0,0,0-1.62-9.26,20.56,20.56,0,0,0-4.55-7,19.81,19.81,0,0,0-7.08-4.5,26.09,26.09,0,0,0-9.31-1.57H143.64V166h47.44a26,26,0,0,0,9.3-1.57A19.38,19.38,0,0,0,212,152.88a25.6,25.6,0,0,0,1.57-9.25v-5q0-5.65-5.46-5.66H133.12v92.45H219.9a17,17,0,0,0,1.72-.11,4.26,4.26,0,0,0,1.82-.6,4.16,4.16,0,0,0,1.42-1.73,7.55,7.55,0,0,0,.61-3.33Z"/><path class="cls-1" d="M419.36,191.07a63.12,63.12,0,0,1-4.6,24.37,57,57,0,0,1-31.91,31.76,63.34,63.34,0,0,1-24.17,4.55h-71a13.44,13.44,0,0,1-5.26-1,12.63,12.63,0,0,1-4.19-2.78,13,13,0,0,1-2.79-4.2,13.62,13.62,0,0,1-1-5.26V120a13.37,13.37,0,0,1,1-5.16,13.63,13.63,0,0,1,2.79-4.25,12.46,12.46,0,0,1,4.19-2.83,13.62,13.62,0,0,1,5.26-1h71a63.34,63.34,0,0,1,24.17,4.55,56.95,56.95,0,0,1,31.91,31.81,63.24,63.24,0,0,1,4.6,24.33ZM393.07,167.4a38.48,38.48,0,0,0-2.48-14.06,31,31,0,0,0-7-10.88,31.86,31.86,0,0,0-10.88-7,38.08,38.08,0,0,0-14-2.48h-58v92.45h58a37.87,37.87,0,0,0,14-2.49,31.71,31.71,0,0,0,10.88-7,31,31,0,0,0,7-10.83,38.35,38.35,0,0,0,2.48-14.1Z"/><path class="cls-1" d="M251.76,414a12.9,12.9,0,0,1-1.06,5.25,13.57,13.57,0,0,1-2.83,4.2,12.78,12.78,0,0,1-4.2,2.78,13.12,13.12,0,0,1-5.16,1,14.05,14.05,0,0,1-4.9-.92,11.38,11.38,0,0,1-4.4-2.93L133.12,323V425.19h-26.3V291.38A12.61,12.61,0,0,1,109.1,284a14.11,14.11,0,0,1,5.81-4.9,13.42,13.42,0,0,1,7.69-.76,12.57,12.57,0,0,1,6.78,3.69l96.09,100.24V280.15h26.29Z"/><path class="cls-1" d="M419.37,382.51a46.12,46.12,0,0,1-2,14,41.7,41.7,0,0,1-5.21,11,34.87,34.87,0,0,1-7.58,8.09,46.88,46.88,0,0,1-9,5.47,45.42,45.42,0,0,1-9.46,3.13,43.7,43.7,0,0,1-9.06,1H275.64V398.9H377.08q7.59,0,11.79-4.45t4.19-11.94a19.11,19.11,0,0,0-1.11-6.68,15.47,15.47,0,0,0-3.18-5.26,14,14,0,0,0-5.06-3.43,17.25,17.25,0,0,0-6.63-1.22H316.6a46.74,46.74,0,0,1-13.75-2.28,41.06,41.06,0,0,1-13.71-7.33,40,40,0,0,1-10.52-13.25q-4.2-8.19-4.2-20t4.2-20a40.29,40.29,0,0,1,24.23-20.63,46.74,46.74,0,0,1,13.75-2.28h89.51v26.3H316.6q-7.49,0-11.68,4.55c-2.8,3-4.2,7.05-4.2,12s1.4,9.06,4.2,12,6.69,4.4,11.68,4.4h60.69a45.76,45.76,0,0,1,9,1.17,44.87,44.87,0,0,1,9.46,3.28,45.84,45.84,0,0,1,8.95,5.62,37.87,37.87,0,0,1,7.53,8.14,40,40,0,0,1,5.21,10.92A46.92,46.92,0,0,1,419.37,382.51Z"/><path class="cls-1" d="M525.4,532.3H0V0H525.4ZM11.93,520.37H513.47V11.93H11.93Z"/></g></g></svg>