<svg width="11" height="7" viewBox="0 0 11 7" fill="none" xmlns="http://www.w3.org/2000/svg">
<path d="M-0.000142097 0.999895C-0.000100136 0.802145 0.0585718 0.608847 0.168456 0.444437C0.27834 0.280027 0.434504 0.151887 0.617204 0.0762167C0.799904 0.000546657 1.00094 -0.0192557 1.19489 0.0193119C1.38884 0.0578795 1.56701 0.153086 1.70686 0.292895L5.24254 3.82798L8.77818 0.292865C8.96569 0.105347 9.22002 9.37688e-07 9.48521 0C9.7504 -9.37676e-07 10.0047 0.105344 10.1922 0.29286C10.3798 0.480376 10.4851 0.734703 10.4851 0.999891C10.4851 1.26508 10.3798 1.51941 10.1922 1.70693L5.94954 5.94911C5.85671 6.04199 5.74649 6.11567 5.62517 6.16594C5.50386 6.21621 5.37383 6.24208 5.24251 6.24208C5.11119 6.24208 4.98116 6.21621 4.85984 6.16594C4.73853 6.11567 4.62831 6.04199 4.53548 5.94911L0.292798 1.70693C0.199798 1.61419 0.126041 1.50398 0.0757685 1.38264C0.0254955 1.26131 -0.000301361 1.13123 -0.000142097 0.999895Z" fill="#C6A15A"/>
</svg>
